<?xml version="1.0" encoding="iso-8859-1"?>
<!-- Uploaded to: SVG Repo, www.svgrepo.com, Generator: SVG Repo Mixer Tools -->
<svg version="1.1" id="Layer_1" xmlns="http://www.w3.org/2000/svg" xmlns:xlink="http://www.w3.org/1999/xlink" 
	 viewBox="0 0 512 512" xml:space="preserve">
<g>
	<path style="fill:#F05B56;" d="M226.481,190.954v-59.487c0-6.52-5.285-11.805-11.818-11.805H68.111
		c-6.52,0-11.809,5.285-11.809,11.805v59.451C83.474,188.28,207.203,191.21,226.481,190.954z"/>
	<path style="fill:#F05B56;" d="M56.301,369.897V500.2c0,6.52,5.289,11.796,11.809,11.796h146.552
		c6.534,0,11.818-5.276,11.818-11.796V362.257C222.621,363.857,57.685,369.721,56.301,369.897z"/>
</g>
<path style="fill:#CC333C;" d="M214.667,119.662h-5.667V482.71c0,6.52-5.294,11.805-11.818,11.805H56.301v5.689
	c0,6.52,5.289,11.796,11.809,11.796h146.552c6.534,0,11.818-5.276,11.818-11.796V131.467
	C226.481,124.947,221.201,119.662,214.667,119.662z"/>
<g>
	<path style="fill:#AA1921;" d="M157.139,79.507c0,6.52-5.289,11.805-11.805,11.805h-7.873c-6.525,0-11.809-5.285-11.809-11.805
		V11.805c0-6.52,5.285-11.805,11.809-11.805h7.873c6.516,0,11.805,5.285,11.805,11.805L157.139,79.507L157.139,79.507z"/>
	<path style="fill:#AA1921;" d="M209.086,107.848c0,6.52-5.285,11.814-11.809,11.814H85.501c-6.516,0-11.814-5.294-11.814-11.814
		v-33.06c0-6.529,5.298-11.814,11.814-11.814h111.776c6.525,0,11.809,5.285,11.809,11.814V107.848z"/>
</g>
<rect x="56.301" y="185.768" style="fill:#EBEACC;" width="170.18" height="192.06"/>
<rect x="209.086" y="185.768" style="fill:#D9D9D9;" width="17.395" height="192.06"/>
<circle style="fill:#AA1921;" cx="141.389" cy="281.803" r="67.675"/>
<circle style="fill:#EBEACC;" cx="141.393" cy="281.803" r="53.524"/>
<g>
	<path style="fill:#FFD42B;" d="M403.388,194.252c18.397,0.503,35.527,0.737,52.311,2.804v-65.59c0-6.52-5.28-11.805-11.805-11.805
		H297.328c-6.52,0-11.805,5.285-11.805,11.805v62.161C324.897,193.318,363.96,193.165,403.388,194.252z"/>
	<path style="fill:#FFD42B;" d="M354.978,368.805c-19.071-1.312-38.183-1.029-57.245,0.494c-4.049,0.324-8.147,0.53-12.209,0.499
		V500.2c0,6.52,5.285,11.796,11.805,11.796h146.561c6.525,0,11.805-5.276,11.805-11.796V369.537
		C422.118,371.083,389.067,371.155,354.978,368.805z"/>
</g>
<g>
	<path style="fill:#D6AB00;" d="M443.889,119.662h-5.68V482.71c0,6.52-5.285,11.805-11.805,11.805H285.523v5.689
		c0,6.52,5.285,11.796,11.805,11.796h146.561c6.525,0,11.805-5.276,11.805-11.796V131.467
		C455.694,124.947,450.414,119.662,443.889,119.662z"/>
	<path style="fill:#D6AB00;" d="M386.357,79.507c0,6.52-5.289,11.805-11.809,11.805h-7.873c-6.525,0-11.805-5.285-11.805-11.805
		V11.805C354.87,5.285,360.15,0,366.675,0h7.873c6.52,0,11.809,5.285,11.809,11.805V79.507z"/>
	<path style="fill:#D6AB00;" d="M438.308,107.848c0,6.52-5.289,11.814-11.814,11.814H314.723c-6.516,0-11.805-5.294-11.805-11.814
		v-33.06c0-6.529,5.289-11.814,11.805-11.814h111.771c6.525,0,11.814,5.285,11.814,11.814V107.848z"/>
</g>
<rect x="285.528" y="185.768" style="fill:#EBEACC;" width="170.171" height="192.06"/>
<rect x="438.313" y="185.768" style="fill:#D9D9D9;" width="17.386" height="192.06"/>
<path style="fill:#D6AB00;" d="M438.308,281.803c0,37.396-30.31,67.702-67.702,67.702c-37.383,0-67.688-30.305-67.688-67.702
	c0-37.387,30.301-67.688,67.688-67.688C407.998,214.114,438.308,244.415,438.308,281.803z"/>
<circle style="fill:#EBEACC;" cx="370.593" cy="281.803" r="53.524"/>
</svg>